<svg width="19" height="13" viewBox="0 0 19 13" fill="none" xmlns="http://www.w3.org/2000/svg">
    <path fill-rule="evenodd" clip-rule="evenodd" d="M7.56476 10.8432C4.70354 10.2197 2.26773 8.019 1.13111 6.00657C2.25623 3.99811 4.69108 1.79783 7.55532 1.17379C9.0279 0.85296 10.6143 0.947713 12.2117 1.69849C13.7519 2.42237 15.3329 3.77081 16.8353 6.00765C15.3329 8.24468 13.7533 9.5934 12.215 10.3176C10.6196 11.0686 9.03562 11.1637 7.56476 10.8432ZM17.8539 5.73571C16.2227 3.21898 14.4462 1.64376 12.6371 0.793462C10.8237 -0.0588136 9.01088 -0.166791 7.34244 0.196712C4.03429 0.917463 1.29645 3.48727 0.11835 5.77906L0.000244141 6.00881L0.119299 6.23808C1.30949 8.53003 4.04645 11.0999 7.35184 11.8202C9.01885 12.1835 10.8295 12.075 12.6409 11.2223C14.448 10.3716 16.2228 8.79614 17.8539 6.27959L18.0301 6.00765L17.8539 5.73571ZM6.68589 6.00753C6.68589 4.63146 7.7433 3.55737 8.99776 3.55737C10.2522 3.55737 11.3096 4.63146 11.3096 6.00753C11.3096 7.38361 10.2522 8.4577 8.99776 8.4577C7.7433 8.4577 6.68589 7.38361 6.68589 6.00753ZM8.99776 2.55737C7.14631 2.55737 5.68589 4.12496 5.68589 6.00753C5.68589 7.89011 7.14631 9.4577 8.99776 9.4577C10.8492 9.4577 12.3096 7.89011 12.3096 6.00753C12.3096 4.12496 10.8492 2.55737 8.99776 2.55737Z" fill="white"/>
</svg>
